<svg width="100" height="100" viewBox="0 0 100 100" fill="none" xmlns="http://www.w3.org/2000/svg">
<rect width="100" height="100" rx="10" fill="white"/>
<g clip-path="url(#clip0_59_7)">
<path d="M11 50C11 54.264 11.65 58.372 12.95 62.324C14.25 66.276 16.122 69.864 18.566 73.088C21.01 76.312 23.818 79.12 26.99 81.512C30.162 83.904 33.75 85.776 37.754 87.128C41.758 88.48 45.84 89.13 50 89.078C54.264 89.078 58.372 88.428 62.324 87.128C66.276 85.828 69.864 83.956 73.088 81.512C76.312 79.068 79.094 76.26 81.434 73.088C83.774 69.916 85.646 66.328 87.05 62.324C88.454 58.32 89.104 54.212 89 50V40.25L69.5 59.75H77.534C75.766 64.742 72.88 68.928 68.876 72.308C64.872 75.688 60.218 77.846 54.914 78.782V54.914H59.75C61.102 54.914 62.246 54.446 63.182 53.51C64.118 52.574 64.612 51.404 64.664 50C64.716 48.596 64.222 47.452 63.182 46.568C62.142 45.684 60.998 45.216 59.75 45.164H54.914V39.392C57.774 38.404 60.114 36.662 61.934 34.166C63.754 31.67 64.664 28.836 64.664 25.664C64.664 22.024 63.442 18.826 60.998 16.07C58.554 13.314 55.538 11.702 51.95 11.234C51.274 11.078 50.624 11 50 11C49.376 11 48.726 11.078 48.05 11.234C44.462 11.754 41.446 13.366 39.002 16.07C36.558 18.774 35.362 21.972 35.414 25.664C35.414 28.784 36.298 31.592 38.066 34.088C39.834 36.584 42.2 38.352 45.164 39.392V45.164H40.25C38.898 45.164 37.754 45.632 36.818 46.568C35.882 47.504 35.414 48.648 35.414 50C35.414 51.352 35.882 52.522 36.818 53.51C37.754 54.498 38.898 54.966 40.25 54.914H45.164V78.782C39.86 77.898 35.206 75.74 31.202 72.308C27.198 68.876 24.286 64.69 22.466 59.75H30.5L11 40.25L11 50ZM45.164 25.664C45.164 24.312 45.632 23.168 46.568 22.232C47.504 21.296 48.648 20.802 50 20.75C51.352 20.698 52.496 21.192 53.432 22.232C54.368 23.272 54.862 24.416 54.914 25.664C54.966 26.912 54.472 28.056 53.432 29.096C52.392 30.136 51.248 30.604 50 30.5C48.752 30.396 47.608 29.928 46.568 29.096C45.528 28.264 45.06 27.12 45.164 25.664Z" fill="black"/>
</g>
<defs>
<clipPath id="clip0_59_7">
<rect width="78" height="78" fill="white" transform="translate(11 11)"/>
</clipPath>
</defs>
</svg>
